<?xml version="1.0" encoding="utf-8"?>
<!-- Generator: Adobe Illustrator 16.0.0, SVG Export Plug-In . SVG Version: 6.00 Build 0)  -->
<!DOCTYPE svg PUBLIC "-//W3C//DTD SVG 1.1//EN" "http://www.w3.org/Graphics/SVG/1.1/DTD/svg11.dtd">
<svg version="1.1" id="Layer_1" xmlns="http://www.w3.org/2000/svg" xmlns:xlink="http://www.w3.org/1999/xlink" x="0px" y="0px"
	 width="512px" height="512px" viewBox="0 0 512 512" enable-background="new 0 0 512 512" xml:space="preserve">
<g>
	<g>
		<path fill-rule="evenodd" clip-rule="evenodd" d="M194.994,52.5c-88.083,0-159.5,71.411-159.5,159.5
			c0,88.09,159.5,265.833,159.5,265.833S354.5,300.091,354.5,212C354.5,123.91,283.083,52.5,194.994,52.5z M194.994,278.455
			c-44.042,0-79.75-35.705-79.75-79.747c0-44.048,35.708-79.75,79.75-79.75c44.047,0,79.75,35.702,79.75,79.75
			C274.744,242.75,239.041,278.455,194.994,278.455z"/>
	</g>
</g>
<path fill="#010101" d="M373.21,335.106c0.54-12.7,12.02-23.69,24.75-23.65c10.3-0.52,20.399,5.91,24.34,15.44
	c2.45,5.43,2.04,11.5,2.06,17.31c-0.12,8.25,0.08,16.5-0.05,24.75c10.9,0.08,21.81-0.01,32.71,0.05c7.49,0.2,14.88,3.74,19.44,9.74
	c6.189,7.62,7.109,18.86,2.729,27.57c-3.96,7.88-12.24,13.439-21.09,13.84c-11.2,0.23-22.41-0.05-33.61,0.1
	c-0.359,8.641-0.06,17.29-0.14,25.94c-0.08,4.2,0.26,8.48-0.84,12.59c-2.07,8.32-8.69,15.37-16.9,17.86
	c-7.75,2.399-16.71,1.18-23.189-3.82c-6.46-4.7-10.381-12.59-10.271-20.56c-0.07-10.681,0.061-21.37-0.05-32.05
	c-8.7,0.13-17.4-0.141-26.1,0.06c-4.131-0.07-8.341,0.2-12.381-0.84c-8.55-2.15-15.76-9.09-18.1-17.62
	c-1.62-5.83-1.31-12.24,1.25-17.771c3.76-8.689,12.74-14.71,22.2-15.01c11.01-0.1,22.03-0.03,33.05-0.04
	C373.35,357.706,372.949,346.406,373.21,335.106z"/>
</svg>
