<?xml version="1.0" encoding="utf-8"?>
<!-- Generator: Adobe Illustrator 16.0.0, SVG Export Plug-In . SVG Version: 6.00 Build 0)  -->
<!DOCTYPE svg PUBLIC "-//W3C//DTD SVG 1.1//EN" "http://www.w3.org/Graphics/SVG/1.1/DTD/svg11.dtd">
<svg version="1.1" id="Layer_1" xmlns="http://www.w3.org/2000/svg" xmlns:xlink="http://www.w3.org/1999/xlink" x="0px" y="0px"
	 width="512px" height="512px" viewBox="0 0 512 512" enable-background="new 0 0 512 512" xml:space="preserve">
<path d="M462.5,468.219l-33.938,33.938C422.5,508.188,404.75,512,404.219,512c-107.438,0.906-210.875-41.281-286.891-117.313
	C41.094,318.469-1.141,214.625,0.031,106.875c0-0.063,3.891-17.313,9.938-23.313l33.938-33.969c12.453-12.438,36.297-18.063,53-12.5
	l7.156,2.406c16.703,5.563,34.156,24,38.781,40.969l17.094,62.719c4.641,17-1.594,41.188-14.031,53.625L123.219,219.5
	c22.25,82.469,86.922,147.125,169.344,169.406l22.688-22.688c12.438-12.438,36.688-18.656,53.688-14.031l62.719,17.125
	c16.938,4.594,35.375,22.031,40.969,38.75l2.375,7.156C480.563,431.938,474.938,455.781,462.5,468.219z M466.75,0l-67.875,67.875
	L331,0l-45.266,45.25l67.891,67.875L285.734,181L331,226.281l67.875-67.906l67.875,67.906L512,181l-67.875-67.875L512,45.25
	L466.75,0z"/>
</svg>
